# 3ds Max Wavefront OBJ Exporter v0.99 - (c)2007 guruware
# File Created: 07.06.2021 12:20:47

mtllib obelisk.mtl

#
# object Box001
#

v  -13.5609 -0.4991 0.3632
v  -13.5609 -0.4991 -0.0537
v  -13.0046 -0.4991 -0.0537
v  -13.0046 -0.4991 0.3632
v  -12.0742 -0.4991 -0.0537
v  -12.0742 -0.4991 0.3632
v  -11.1437 -0.4991 -0.0537
v  -11.1437 -0.4991 0.3632
v  -10.2132 -0.4991 -0.0537
v  -10.2132 -0.4991 0.3632
v  -9.6570 -0.4991 -0.0537
v  -9.6570 -0.4991 0.3632
v  -13.5609 -0.4991 -0.8449
v  -13.0046 -0.4991 -0.8449
v  -12.0742 -0.4991 -0.8449
v  -11.1437 -0.4991 -0.8449
v  -10.2132 -0.4991 -0.8449
v  -9.6570 -0.4991 -0.8449
v  -13.5609 -0.4991 -1.6360
v  -13.0046 -0.4991 -1.6360
v  -12.0742 -0.4991 -1.6360
v  -11.1437 -0.4991 -1.6360
v  -10.2132 -0.4991 -1.6360
v  -9.6570 -0.4991 -1.6360
v  -13.5609 -0.4991 -2.4272
v  -13.0046 -0.4991 -2.4272
v  -12.0742 -0.4991 -2.4272
v  -11.1437 -0.4991 -2.4272
v  -10.2132 -0.4991 -2.4272
v  -9.6570 -0.4991 -2.4272
v  -13.5609 -0.4991 -2.8441
v  -13.0046 -0.4991 -2.8441
v  -12.0742 -0.4991 -2.8441
v  -11.1437 -0.4991 -2.8441
v  -10.2132 -0.4991 -2.8441
v  -9.6570 -0.4991 -2.8441
v  -13.5609 4.5134 0.3632
v  -13.0046 4.5134 0.3632
v  -13.3789 4.5134 0.3206
v  -13.5609 4.5134 -0.0537
v  -12.0742 4.5134 0.3632
v  -12.0742 4.5134 0.3206
v  -11.1437 4.5134 0.3632
v  -11.1437 4.5134 0.3206
v  -10.2132 4.5134 0.3632
v  -9.8389 4.5134 0.3206
v  -9.6570 4.5134 0.3632
v  -9.6570 4.5134 -0.0537
v  -13.3789 4.5134 -0.8449
v  -13.5609 4.5134 -0.8449
v  -12.3808 47.0576 -0.6775
v  -12.0742 47.0576 -0.6775
v  -12.0742 47.0576 -0.8449
v  -12.3808 47.0576 -0.8449
v  -11.1437 47.0576 -0.6775
v  -11.1437 47.0576 -0.8449
v  -10.8370 47.0576 -0.6775
v  -10.8370 47.0576 -0.8449
v  -9.6570 4.5134 -0.8449
v  -9.8389 4.5134 -0.8449
v  -13.3789 4.5134 -1.6360
v  -13.5609 4.5134 -1.6360
v  -12.0742 47.0576 -1.6360
v  -12.3808 47.0576 -1.6360
v  -11.1437 47.0576 -1.6360
v  -10.8370 47.0576 -1.6360
v  -9.6570 4.5134 -1.6360
v  -9.8389 4.5134 -1.6360
v  -13.3789 4.5134 -2.8015
v  -13.5609 4.5134 -2.4272
v  -12.0742 47.0576 -1.8034
v  -12.3808 47.0576 -1.8034
v  -11.1437 47.0576 -1.8034
v  -10.8370 47.0576 -1.8034
v  -9.6570 4.5134 -2.4272
v  -9.8389 4.5134 -2.8015
v  -13.0046 4.5134 -2.8441
v  -13.5609 4.5134 -2.8441
v  -12.0742 4.5134 -2.8015
v  -12.0742 4.5134 -2.8441
v  -11.1437 4.5134 -2.8015
v  -11.1437 4.5134 -2.8441
v  -10.2132 4.5134 -2.8441
v  -9.6570 4.5134 -2.8441
v  -13.9351 0.0000 0.7374
v  -13.0046 0.0000 0.7374
v  -13.0046 0.8029 0.7374
v  -13.9351 0.8029 0.7374
v  -12.0742 0.0000 0.7374
v  -12.0742 0.8029 0.7374
v  -11.1437 0.0000 0.7374
v  -11.1437 0.8029 0.7374
v  -10.2132 0.0000 0.7374
v  -10.2132 0.8029 0.7374
v  -9.2827 0.0000 0.7374
v  -9.2827 0.8029 0.7374
v  -13.0046 1.6057 0.7374
v  -13.9351 1.6057 0.7374
v  -12.0742 1.6057 0.7374
v  -11.1437 1.6057 0.7374
v  -10.2132 1.6057 0.7374
v  -9.2827 1.6057 0.7374
v  -13.0046 2.4086 0.7374
v  -13.9351 2.4086 0.7374
v  -12.0742 2.4086 0.7374
v  -11.1437 2.4086 0.7374
v  -10.2132 2.4086 0.7374
v  -9.2827 2.4086 0.7374
v  -13.0046 3.2115 0.7374
v  -13.9351 3.2115 0.7374
v  -12.0742 3.2115 0.7374
v  -11.1437 3.2115 0.7374
v  -10.2132 3.2115 0.7374
v  -9.2827 3.2115 0.7374
v  -13.0046 4.0144 0.7374
v  -13.9351 4.0144 0.7374
v  -12.0742 4.0144 0.7374
v  -11.1437 4.0144 0.7374
v  -10.2132 4.0144 0.7374
v  -9.2827 4.0144 0.7374
v  -9.2827 0.0000 -0.0537
v  -9.2827 0.8029 -0.0537
v  -9.2827 0.0000 -0.8449
v  -9.2827 0.8029 -0.8449
v  -9.2827 0.0000 -1.6360
v  -9.2827 0.8029 -1.6360
v  -9.2827 0.0000 -2.4272
v  -9.2827 0.8029 -2.4272
v  -9.2827 0.0000 -3.2184
v  -9.2827 0.8029 -3.2184
v  -9.2827 1.6057 -0.0537
v  -9.2827 1.6057 -0.8449
v  -9.2827 1.6057 -1.6360
v  -9.2827 1.6057 -2.4272
v  -9.2827 1.6057 -3.2184
v  -9.2827 2.4086 -0.0537
v  -9.2827 2.4086 -0.8449
v  -9.2827 2.4086 -1.6360
v  -9.2827 2.4086 -2.4272
v  -9.2827 2.4086 -3.2184
v  -9.2827 3.2115 -0.0537
v  -9.2827 3.2115 -0.8449
v  -9.2827 3.2115 -1.6360
v  -9.2827 3.2115 -2.4272
v  -9.2827 3.2115 -3.2184
v  -9.2827 4.0144 -0.0537
v  -9.2827 4.0144 -0.8449
v  -9.2827 4.0144 -1.6360
v  -9.2827 4.0144 -2.4272
v  -9.2827 4.0144 -3.2184
v  -10.2132 0.0000 -3.2184
v  -10.2132 0.8029 -3.2184
v  -11.1437 0.0000 -3.2184
v  -11.1437 0.8029 -3.2184
v  -12.0742 0.0000 -3.2184
v  -12.0742 0.8029 -3.2184
v  -13.0046 0.0000 -3.2184
v  -13.0046 0.8029 -3.2184
v  -13.9351 0.0000 -3.2184
v  -13.9351 0.8029 -3.2184
v  -10.2132 1.6057 -3.2184
v  -11.1437 1.6057 -3.2184
v  -12.0742 1.6057 -3.2184
v  -13.0046 1.6057 -3.2184
v  -13.9351 1.6057 -3.2184
v  -10.2132 2.4086 -3.2184
v  -11.1437 2.4086 -3.2184
v  -12.0742 2.4086 -3.2184
v  -13.0046 2.4086 -3.2184
v  -13.9351 2.4086 -3.2184
v  -10.2132 3.2115 -3.2184
v  -11.1437 3.2115 -3.2184
v  -12.0742 3.2115 -3.2184
v  -13.0046 3.2115 -3.2184
v  -13.9351 3.2115 -3.2184
v  -10.2132 4.0144 -3.2184
v  -11.1437 4.0144 -3.2184
v  -12.0742 4.0144 -3.2184
v  -13.0046 4.0144 -3.2184
v  -13.9351 4.0144 -3.2184
v  -13.9351 0.0000 -2.4272
v  -13.9351 0.8029 -2.4272
v  -13.9351 0.0000 -1.6360
v  -13.9351 0.8029 -1.6360
v  -13.9351 0.0000 -0.8449
v  -13.9351 0.8029 -0.8449
v  -13.9351 0.0000 -0.0537
v  -13.9351 0.8029 -0.0537
v  -13.9351 1.6057 -2.4272
v  -13.9351 1.6057 -1.6360
v  -13.9351 1.6057 -0.8449
v  -13.9351 1.6057 -0.0537
v  -13.9351 2.4086 -2.4272
v  -13.9351 2.4086 -1.6360
v  -13.9351 2.4086 -0.8449
v  -13.9351 2.4086 -0.0537
v  -13.9351 3.2115 -2.4272
v  -13.9351 3.2115 -1.6360
v  -13.9351 3.2115 -0.8449
v  -13.9351 3.2115 -0.0537
v  -13.9351 4.0144 -2.4272
v  -13.9351 4.0144 -1.6360
v  -13.9351 4.0144 -0.8449
v  -13.9351 4.0144 -0.0537
v  -13.0046 4.0144 -0.0537
v  -12.0742 4.0144 -0.0537
v  -12.0742 6.6344 1.5682
v  -14.6266 6.6344 1.5682
v  -11.1437 4.0144 -0.0537
v  -11.1437 6.6344 1.5682
v  -10.2132 4.0144 -0.0537
v  -8.5913 6.6344 1.5682
v  -10.2132 4.0144 -0.8449
v  -8.5913 6.6344 -0.8449
v  -10.2132 4.0144 -1.6360
v  -8.5913 6.6344 -1.6360
v  -10.2132 4.0144 -2.4272
v  -8.5913 6.6344 -4.0491
v  -11.1437 4.0144 -2.4272
v  -11.1437 6.6344 -4.0491
v  -12.0742 4.0144 -2.4272
v  -12.0742 6.6344 -4.0491
v  -13.0046 4.0144 -2.4272
v  -14.6266 6.6344 -4.0491
v  -13.0046 4.0144 -1.6360
v  -14.6266 6.6344 -1.6360
v  -13.0046 4.0144 -0.8449
v  -14.6266 6.6344 -0.8449
# 228 vertices

vn -0.3557 -0.8643 0.3557
vn -0.4472 -0.8944 -0.0000
vn 0.0000 -1.0000 -0.0000
vn 0.0000 -0.8944 0.4472
vn 0.4472 -0.8944 -0.0000
vn 0.3557 -0.8643 0.3557
vn -0.3557 -0.8643 -0.3557
vn 0.0000 -0.8944 -0.4472
vn 0.3557 -0.8643 -0.3557
vn -0.3557 0.8643 0.3557
vn 0.0000 0.8945 0.4472
vn 0.6797 -0.2757 -0.6797
vn -0.4472 0.8945 -0.0000
vn 0.0000 0.8945 -0.4472
vn -0.6797 -0.2757 -0.6797
vn 0.3557 0.8643 0.3557
vn 0.4472 0.8945 -0.0000
vn -0.5623 0.6064 0.5623
vn 0.0000 0.7265 0.6872
vn 0.0000 1.0000 -0.0000
vn -0.6872 0.7265 -0.0000
vn 0.5623 0.6064 0.5623
vn 0.6872 0.7265 -0.0000
vn 0.6797 -0.2757 0.6797
vn 0.0000 0.7265 -0.6872
vn -0.5623 0.6064 -0.5623
vn 0.5623 0.6064 -0.5623
vn -0.6797 -0.2757 0.6797
vn -0.3557 0.8643 -0.3557
vn 0.3557 0.8643 -0.3557
vn -0.6642 -0.3429 0.6642
vn 0.0000 -0.3162 0.9487
vn 0.0000 0.0000 1.0000
vn -0.7071 0.0000 0.7071
vn 0.6642 -0.3429 0.6642
vn 0.7071 0.0000 0.7071
vn 0.0000 0.3162 0.9487
vn -0.6642 0.3429 0.6642
vn 0.6642 0.3429 0.6642
vn 0.9487 -0.3162 -0.0000
vn 1.0000 0.0000 -0.0000
vn 0.6642 -0.3429 -0.6642
vn 0.7071 -0.0000 -0.7071
vn 0.7071 0.0000 -0.7071
vn 0.9487 0.3162 -0.0000
vn 0.6642 0.3429 -0.6642
vn 0.0000 -0.3162 -0.9487
vn 0.0000 -0.0000 -1.0000
vn -0.6642 -0.3429 -0.6642
vn -0.7071 -0.0000 -0.7071
vn 0.0000 0.0000 -1.0000
vn -0.7071 0.0000 -0.7071
vn 0.0000 0.3162 -0.9487
vn -0.6642 0.3429 -0.6642
vn -0.9487 -0.3162 -0.0000
vn -1.0000 0.0000 -0.0000
vn -0.9487 0.3162 -0.0000
vn -0.1546 0.9758 0.1546
vn 0.0000 0.8246 0.5658
vn 0.0000 -0.2468 0.9691
vn -0.6804 -0.2724 0.6804
vn 0.1546 0.9758 0.1546
vn 0.6804 -0.2724 0.6804
vn 0.5658 0.8246 -0.0000
vn 0.9691 -0.2468 -0.0000
vn 0.1546 0.9758 -0.1546
vn 0.6804 -0.2724 -0.6804
vn 0.0000 0.8246 -0.5658
vn 0.0000 -0.2468 -0.9691
vn -0.1546 0.9758 -0.1546
vn -0.6804 -0.2724 -0.6804
vn -0.5658 0.8246 -0.0000
vn -0.9691 -0.2468 -0.0000
# 73 vertex normals

vt 1.0000 0.0000 0.0000
vt 1.0000 0.2000 0.0000
vt 0.8000 0.2000 0.0000
vt 0.8000 0.0000 0.0000
vt 0.6000 0.2000 0.0000
vt 0.6000 0.0000 0.0000
vt 0.4000 0.2000 0.0000
vt 0.4000 0.0000 0.0000
vt 0.2000 0.2000 0.0000
vt 0.2000 0.0000 0.0000
vt 0.0000 0.2000 0.0000
vt 0.0000 0.0000 0.0000
vt 1.0000 0.4000 0.0000
vt 0.8000 0.4000 0.0000
vt 0.6000 0.4000 0.0000
vt 0.4000 0.4000 0.0000
vt 0.2000 0.4000 0.0000
vt 0.0000 0.4000 0.0000
vt 1.0000 0.6000 0.0000
vt 0.8000 0.6000 0.0000
vt 0.6000 0.6000 0.0000
vt 0.4000 0.6000 0.0000
vt 0.2000 0.6000 0.0000
vt 0.0000 0.6000 0.0000
vt 1.0000 0.8000 0.0000
vt 0.8000 0.8000 0.0000
vt 0.6000 0.8000 0.0000
vt 0.4000 0.8000 0.0000
vt 0.2000 0.8000 0.0000
vt 0.0000 0.8000 0.0000
vt 1.0000 1.0000 0.0000
vt 0.8000 1.0000 0.0000
vt 0.6000 1.0000 0.0000
vt 0.4000 1.0000 0.0000
vt 0.2000 1.0000 0.0000
vt 0.0000 1.0000 0.0000
# 36 texture coords

o Box001
g Box001
usemtl 02___Default
s 2
f 1/1/1 2/2/2 3/3/3 4/4/4 
f 4/4/4 3/3/3 5/5/3 6/6/4 
f 6/6/4 5/5/3 7/7/3 8/8/4 
f 8/8/4 7/7/3 9/9/3 10/10/4 
f 10/10/4 9/9/3 11/11/5 12/12/6 
f 2/2/2 13/13/2 14/14/3 3/3/3 
f 3/3/3 14/14/3 15/15/3 5/5/3 
f 5/5/3 15/15/3 16/16/3 7/7/3 
f 7/7/3 16/16/3 17/17/3 9/9/3 
f 9/9/3 17/17/3 18/18/5 11/11/5 
f 13/13/2 19/19/2 20/20/3 14/14/3 
f 14/14/3 20/20/3 21/21/3 15/15/3 
f 15/15/3 21/21/3 22/22/3 16/16/3 
f 16/16/3 22/22/3 23/23/3 17/17/3 
f 17/17/3 23/23/3 24/24/5 18/18/5 
f 19/19/2 25/25/2 26/26/3 20/20/3 
f 20/20/3 26/26/3 27/27/3 21/21/3 
f 21/21/3 27/27/3 28/28/3 22/22/3 
f 22/22/3 28/28/3 29/29/3 23/23/3 
f 23/23/3 29/29/3 30/30/5 24/24/5 
f 25/25/2 31/31/7 32/32/8 26/26/3 
f 26/26/3 32/32/8 33/33/8 27/27/3 
f 27/27/3 33/33/8 34/34/8 28/28/3 
f 28/28/3 34/34/8 35/35/8 29/29/3 
f 29/29/3 35/35/8 36/36/9 30/30/5 
s 4
f 37/12/10 38/10/11 39/9/12 40/11/13 
f 38/10/11 41/8/11 42/7/14 39/9/12 
f 41/8/11 43/6/11 44/5/14 42/7/14 
f 43/6/11 45/4/11 46/3/15 44/5/14 
f 45/4/11 47/1/16 48/2/17 46/3/15 
f 40/11/13 39/9/12 49/17/17 50/18/13 
f 51/9/18 52/7/19 53/16/20 54/17/21 
f 52/7/19 55/5/19 56/15/20 53/16/20 
f 55/5/19 57/3/22 58/14/23 56/15/20 
f 46/3/15 48/2/17 59/13/17 60/14/13 
f 50/18/13 49/17/17 61/23/17 62/24/13 
f 54/17/21 53/16/20 63/22/20 64/23/21 
f 53/16/20 56/15/20 65/21/20 63/22/20 
f 56/15/20 58/14/23 66/20/23 65/21/20 
f 60/14/13 59/13/17 67/19/17 68/20/13 
f 62/24/13 61/23/17 69/29/24 70/30/13 
f 64/23/21 63/22/20 71/28/25 72/29/26 
f 63/22/20 65/21/20 73/27/25 71/28/25 
f 65/21/20 66/20/23 74/26/27 73/27/25 
f 68/20/13 67/19/17 75/25/17 76/26/28 
f 70/30/13 69/29/24 77/35/14 78/36/29 
f 69/29/24 79/28/11 80/34/14 77/35/14 
f 79/28/11 81/27/11 82/33/14 80/34/14 
f 81/27/11 76/26/28 83/32/14 82/33/14 
f 76/26/28 75/25/17 84/31/30 83/32/14 
s 8
f 85/12/31 86/10/32 87/9/33 88/11/34 
f 86/10/32 89/8/32 90/7/33 87/9/33 
f 89/8/32 91/6/32 92/5/33 90/7/33 
f 91/6/32 93/4/32 94/3/33 92/5/33 
f 93/4/32 95/1/35 96/2/36 94/3/33 
f 88/11/34 87/9/33 97/17/33 98/18/34 
f 87/9/33 90/7/33 99/16/33 97/17/33 
f 90/7/33 92/5/33 100/15/33 99/16/33 
f 92/5/33 94/3/33 101/14/33 100/15/33 
f 94/3/33 96/2/36 102/13/36 101/14/33 
f 98/18/34 97/17/33 103/23/33 104/24/34 
f 97/17/33 99/16/33 105/22/33 103/23/33 
f 99/16/33 100/15/33 106/21/33 105/22/33 
f 100/15/33 101/14/33 107/20/33 106/21/33 
f 101/14/33 102/13/36 108/19/36 107/20/33 
f 104/24/34 103/23/33 109/29/33 110/30/34 
f 103/23/33 105/22/33 111/28/33 109/29/33 
f 105/22/33 106/21/33 112/27/33 111/28/33 
f 106/21/33 107/20/33 113/26/33 112/27/33 
f 107/20/33 108/19/36 114/25/36 113/26/33 
f 110/30/34 109/29/33 115/35/37 116/36/38 
f 109/29/33 111/28/33 117/34/37 115/35/37 
f 111/28/33 112/27/33 118/33/37 117/34/37 
f 112/27/33 113/26/33 119/32/37 118/33/37 
f 113/26/33 114/25/36 120/31/39 119/32/37 
s 16
f 95/12/35 121/10/40 122/9/41 96/11/36 
f 121/10/40 123/8/40 124/7/41 122/9/41 
f 123/8/40 125/6/40 126/5/41 124/7/41 
f 125/6/40 127/4/40 128/3/41 126/5/41 
f 127/4/40 129/1/42 130/2/43 128/3/41 
f 96/11/36 122/9/41 131/17/41 102/18/36 
f 122/9/41 124/7/41 132/16/41 131/17/41 
f 124/7/41 126/5/41 133/15/41 132/16/41 
f 126/5/41 128/3/41 134/14/41 133/15/41 
f 128/3/41 130/2/43 135/13/44 134/14/41 
f 102/18/36 131/17/41 136/23/41 108/24/36 
f 131/17/41 132/16/41 137/22/41 136/23/41 
f 132/16/41 133/15/41 138/21/41 137/22/41 
f 133/15/41 134/14/41 139/20/41 138/21/41 
f 134/14/41 135/13/44 140/19/44 139/20/41 
f 108/24/36 136/23/41 141/29/41 114/30/36 
f 136/23/41 137/22/41 142/28/41 141/29/41 
f 137/22/41 138/21/41 143/27/41 142/28/41 
f 138/21/41 139/20/41 144/26/41 143/27/41 
f 139/20/41 140/19/44 145/25/44 144/26/41 
f 114/30/36 141/29/41 146/35/45 120/36/39 
f 141/29/41 142/28/41 147/34/45 146/35/45 
f 142/28/41 143/27/41 148/33/45 147/34/45 
f 143/27/41 144/26/41 149/32/45 148/33/45 
f 144/26/41 145/25/44 150/31/46 149/32/45 
s 32
f 129/12/42 151/10/47 152/9/48 130/11/43 
f 151/10/47 153/8/47 154/7/48 152/9/48 
f 153/8/47 155/6/47 156/5/48 154/7/48 
f 155/6/47 157/4/47 158/3/48 156/5/48 
f 157/4/47 159/1/49 160/2/50 158/3/48 
f 130/11/43 152/9/48 161/17/51 135/18/44 
f 152/9/48 154/7/48 162/16/51 161/17/51 
f 154/7/48 156/5/48 163/15/51 162/16/51 
f 156/5/48 158/3/48 164/14/51 163/15/51 
f 158/3/48 160/2/50 165/13/52 164/14/51 
f 135/18/44 161/17/51 166/23/51 140/24/44 
f 161/17/51 162/16/51 167/22/51 166/23/51 
f 162/16/51 163/15/51 168/21/51 167/22/51 
f 163/15/51 164/14/51 169/20/51 168/21/51 
f 164/14/51 165/13/52 170/19/52 169/20/51 
f 140/24/44 166/23/51 171/29/51 145/30/44 
f 166/23/51 167/22/51 172/28/51 171/29/51 
f 167/22/51 168/21/51 173/27/51 172/28/51 
f 168/21/51 169/20/51 174/26/51 173/27/51 
f 169/20/51 170/19/52 175/25/52 174/26/51 
f 145/30/44 171/29/51 176/35/53 150/36/46 
f 171/29/51 172/28/51 177/34/53 176/35/53 
f 172/28/51 173/27/51 178/33/53 177/34/53 
f 173/27/51 174/26/51 179/32/53 178/33/53 
f 174/26/51 175/25/52 180/31/54 179/32/53 
s 64
f 159/12/49 181/10/55 182/9/56 160/11/50 
f 181/10/55 183/8/55 184/7/56 182/9/56 
f 183/8/55 185/6/55 186/5/56 184/7/56 
f 185/6/55 187/4/55 188/3/56 186/5/56 
f 187/4/55 85/1/31 88/2/34 188/3/56 
f 160/11/50 182/9/56 189/17/56 165/18/52 
f 182/9/56 184/7/56 190/16/56 189/17/56 
f 184/7/56 186/5/56 191/15/56 190/16/56 
f 186/5/56 188/3/56 192/14/56 191/15/56 
f 188/3/56 88/2/34 98/13/34 192/14/56 
f 165/18/52 189/17/56 193/23/56 170/24/52 
f 189/17/56 190/16/56 194/22/56 193/23/56 
f 190/16/56 191/15/56 195/21/56 194/22/56 
f 191/15/56 192/14/56 196/20/56 195/21/56 
f 192/14/56 98/13/34 104/19/34 196/20/56 
f 170/24/52 193/23/56 197/29/56 175/30/52 
f 193/23/56 194/22/56 198/28/56 197/29/56 
f 194/22/56 195/21/56 199/27/56 198/28/56 
f 195/21/56 196/20/56 200/26/56 199/27/56 
f 196/20/56 104/19/34 110/25/34 200/26/56 
f 175/30/52 197/29/56 201/35/57 180/36/54 
f 197/29/56 198/28/56 202/34/57 201/35/57 
f 198/28/56 199/27/56 203/33/57 202/34/57 
f 199/27/56 200/26/56 204/32/57 203/33/57 
f 200/26/56 110/25/34 116/31/38 204/32/57 
s off
f 205/9/58 206/7/59 207/7/60 208/9/61 
f 206/7/59 209/5/59 210/5/60 207/7/60 
f 209/5/59 211/3/62 212/3/63 210/5/60 
f 211/3/62 213/14/64 214/14/65 212/3/63 
f 213/14/64 215/20/64 216/20/65 214/14/65 
f 215/20/64 217/26/66 218/26/67 216/20/65 
f 217/26/66 219/27/68 220/27/69 218/26/67 
f 219/27/68 221/28/68 222/28/69 220/27/69 
f 221/28/68 223/29/70 224/29/71 222/28/69 
f 223/29/70 225/23/72 226/23/73 224/29/71 
f 225/23/72 227/17/72 228/17/73 226/23/73 
f 227/17/72 205/9/58 208/9/61 228/17/73 
f 208/9/61 207/7/60 52/7/19 51/9/18 
f 207/7/60 210/5/60 55/5/19 52/7/19 
f 210/5/60 212/3/63 57/3/22 55/5/19 
f 212/3/63 214/14/65 58/14/23 57/3/22 
f 214/14/65 216/20/65 66/20/23 58/14/23 
f 216/20/65 218/26/67 74/26/27 66/20/23 
f 218/26/67 220/27/69 73/27/25 74/26/27 
f 220/27/69 222/28/69 71/28/25 73/27/25 
f 222/28/69 224/29/71 72/29/26 71/28/25 
f 224/29/71 226/23/73 64/23/21 72/29/26 
f 226/23/73 228/17/73 54/17/21 64/23/21 
f 228/17/73 208/9/61 51/9/18 54/17/21 
f 116/12/38 115/10/37 38/10/11 37/12/10 
f 115/10/37 117/8/37 41/8/11 38/10/11 
f 117/8/37 118/6/37 43/6/11 41/8/11 
f 118/6/37 119/4/37 45/4/11 43/6/11 
f 119/4/37 120/1/39 47/1/16 45/4/11 
f 120/1/39 146/2/45 48/2/17 47/1/16 
f 146/2/45 147/13/45 59/13/17 48/2/17 
f 147/13/45 148/19/45 67/19/17 59/13/17 
f 148/19/45 149/25/45 75/25/17 67/19/17 
f 149/25/45 150/31/46 84/31/30 75/25/17 
f 150/31/46 176/32/53 83/32/14 84/31/30 
f 176/32/53 177/33/53 82/33/14 83/32/14 
f 177/33/53 178/34/53 80/34/14 82/33/14 
f 178/34/53 179/35/53 77/35/14 80/34/14 
f 179/35/53 180/36/54 78/36/29 77/35/14 
f 180/36/54 201/30/57 70/30/13 78/36/29 
f 201/30/57 202/24/57 62/24/13 70/30/13 
f 202/24/57 203/18/57 50/18/13 62/24/13 
f 203/18/57 204/11/57 40/11/13 50/18/13 
f 204/11/57 116/12/38 37/12/10 40/11/13 
f 206/7/59 205/9/58 39/9/12 42/7/14 
f 205/9/58 227/17/72 49/17/17 39/9/12 
f 227/17/72 225/23/72 61/23/17 49/17/17 
f 225/23/72 223/29/70 69/29/24 61/23/17 
f 223/29/70 221/28/68 79/28/11 69/29/24 
f 221/28/68 219/27/68 81/27/11 79/28/11 
f 219/27/68 217/26/66 76/26/28 81/27/11 
f 217/26/66 215/20/64 68/20/13 76/26/28 
f 215/20/64 213/14/64 60/14/13 68/20/13 
f 213/14/64 211/3/62 46/3/15 60/14/13 
f 211/3/62 209/5/59 44/5/14 46/3/15 
f 209/5/59 206/7/59 42/7/14 44/5/14 
f 85/1/31 187/2/55 2/2/2 1/1/1 
f 187/2/55 185/13/55 13/13/2 2/2/2 
f 185/13/55 183/19/55 19/19/2 13/13/2 
f 183/19/55 181/25/55 25/25/2 19/19/2 
f 181/25/55 159/31/49 31/31/7 25/25/2 
f 159/31/49 157/32/47 32/32/8 31/31/7 
f 157/32/47 155/33/47 33/33/8 32/32/8 
f 155/33/47 153/34/47 34/34/8 33/33/8 
f 153/34/47 151/35/47 35/35/8 34/34/8 
f 151/35/47 129/36/42 36/36/9 35/35/8 
f 129/36/42 127/30/40 30/30/5 36/36/9 
f 127/30/40 125/24/40 24/24/5 30/30/5 
f 125/24/40 123/18/40 18/18/5 24/24/5 
f 123/18/40 121/11/40 11/11/5 18/18/5 
f 121/11/40 95/12/35 12/12/6 11/11/5 
f 95/12/35 93/10/32 10/10/4 12/12/6 
f 93/10/32 91/8/32 8/8/4 10/10/4 
f 91/8/32 89/6/32 6/6/4 8/8/4 
f 89/6/32 86/4/32 4/4/4 6/6/4 
f 86/4/32 85/1/31 1/1/1 4/4/4 
# 226 polygons

